<mxfile host="app.diagrams.net" modified="2023-12-06T01:04:02.811Z" agent="Mozilla/5.0 (Windows NT 10.0; Win64; x64) AppleWebKit/537.36 (KHTML, like Gecko) Chrome/119.0.0.0 Safari/537.36" etag="2i9iyNVngM_LCFDldkhY" version="22.1.5" type="github">
  <diagram name="第 1 页" id="obevs3YZdFD0K9c6LPep">
    <mxGraphModel dx="1434" dy="746" grid="1" gridSize="10" guides="1" tooltips="1" connect="1" arrows="1" fold="1" page="1" pageScale="1" pageWidth="827" pageHeight="1169" math="0" shadow="0">
      <root>
        <mxCell id="0" />
        <mxCell id="1" parent="0" />
        <mxCell id="IqKJ3Grns9YhJ9xSelWy-29" value="" style="rounded=0;whiteSpace=wrap;html=1;" vertex="1" parent="1">
          <mxGeometry x="30" y="384.5" width="330" height="120" as="geometry" />
        </mxCell>
        <mxCell id="IqKJ3Grns9YhJ9xSelWy-4" value="" style="rounded=1;whiteSpace=wrap;html=1;" vertex="1" parent="1">
          <mxGeometry x="30" y="20" width="530" height="100" as="geometry" />
        </mxCell>
        <mxCell id="IqKJ3Grns9YhJ9xSelWy-1" value="mysql" style="shape=cylinder3;whiteSpace=wrap;html=1;boundedLbl=1;backgroundOutline=1;size=15;" vertex="1" parent="1">
          <mxGeometry x="40" y="30" width="60" height="80" as="geometry" />
        </mxCell>
        <mxCell id="IqKJ3Grns9YhJ9xSelWy-16" value="" style="edgeStyle=orthogonalEdgeStyle;rounded=0;orthogonalLoop=1;jettySize=auto;html=1;" edge="1" parent="1" target="IqKJ3Grns9YhJ9xSelWy-8">
          <mxGeometry relative="1" as="geometry">
            <mxPoint x="140" y="120" as="sourcePoint" />
          </mxGeometry>
        </mxCell>
        <mxCell id="IqKJ3Grns9YhJ9xSelWy-2" value="mongodb" style="shape=cylinder3;whiteSpace=wrap;html=1;boundedLbl=1;backgroundOutline=1;size=15;" vertex="1" parent="1">
          <mxGeometry x="110" y="30" width="60" height="80" as="geometry" />
        </mxCell>
        <mxCell id="IqKJ3Grns9YhJ9xSelWy-3" value="hive" style="shape=cylinder3;whiteSpace=wrap;html=1;boundedLbl=1;backgroundOutline=1;size=15;" vertex="1" parent="1">
          <mxGeometry x="180" y="30" width="60" height="80" as="geometry" />
        </mxCell>
        <mxCell id="IqKJ3Grns9YhJ9xSelWy-5" value="Data Development platform" style="rounded=0;whiteSpace=wrap;html=1;" vertex="1" parent="1">
          <mxGeometry x="260" y="40" width="90" height="60" as="geometry" />
        </mxCell>
        <mxCell id="IqKJ3Grns9YhJ9xSelWy-6" value="tracking data" style="rounded=0;whiteSpace=wrap;html=1;" vertex="1" parent="1">
          <mxGeometry x="360" y="40" width="90" height="60" as="geometry" />
        </mxCell>
        <mxCell id="IqKJ3Grns9YhJ9xSelWy-7" value="schedule job" style="rounded=0;whiteSpace=wrap;html=1;" vertex="1" parent="1">
          <mxGeometry x="460" y="40" width="90" height="60" as="geometry" />
        </mxCell>
        <mxCell id="IqKJ3Grns9YhJ9xSelWy-8" value="MQ(kafka)" style="shape=cylinder3;whiteSpace=wrap;html=1;boundedLbl=1;backgroundOutline=1;size=15;direction=south;" vertex="1" parent="1">
          <mxGeometry x="55" y="180" width="170" height="40" as="geometry" />
        </mxCell>
        <mxCell id="IqKJ3Grns9YhJ9xSelWy-10" value="Lineage Parser Job" style="shape=process;whiteSpace=wrap;html=1;backgroundOutline=1;" vertex="1" parent="1">
          <mxGeometry x="55" y="270" width="265" height="60" as="geometry" />
        </mxCell>
        <mxCell id="IqKJ3Grns9YhJ9xSelWy-11" value="mysql" style="shape=cylinder3;whiteSpace=wrap;html=1;boundedLbl=1;backgroundOutline=1;size=15;" vertex="1" parent="1">
          <mxGeometry x="60" y="404.5" width="60" height="80" as="geometry" />
        </mxCell>
        <mxCell id="IqKJ3Grns9YhJ9xSelWy-12" value="es" style="shape=cylinder3;whiteSpace=wrap;html=1;boundedLbl=1;backgroundOutline=1;size=15;" vertex="1" parent="1">
          <mxGeometry x="157.5" y="404.5" width="60" height="80" as="geometry" />
        </mxCell>
        <mxCell id="IqKJ3Grns9YhJ9xSelWy-13" value="neo4j" style="shape=cylinder3;whiteSpace=wrap;html=1;boundedLbl=1;backgroundOutline=1;size=15;" vertex="1" parent="1">
          <mxGeometry x="255" y="404.5" width="60" height="80" as="geometry" />
        </mxCell>
        <mxCell id="IqKJ3Grns9YhJ9xSelWy-15" value="" style="endArrow=classic;html=1;rounded=0;" edge="1" parent="1">
          <mxGeometry width="50" height="50" relative="1" as="geometry">
            <mxPoint x="139.5" y="220" as="sourcePoint" />
            <mxPoint x="139.5" y="270" as="targetPoint" />
          </mxGeometry>
        </mxCell>
        <mxCell id="IqKJ3Grns9YhJ9xSelWy-20" value="Search" style="rounded=1;whiteSpace=wrap;html=1;" vertex="1" parent="1">
          <mxGeometry x="120" y="544.5" width="86.75" height="40" as="geometry" />
        </mxCell>
        <mxCell id="IqKJ3Grns9YhJ9xSelWy-22" value="Relation" style="rounded=1;whiteSpace=wrap;html=1;" vertex="1" parent="1">
          <mxGeometry x="280" y="544.5" width="80" height="40" as="geometry" />
        </mxCell>
        <mxCell id="IqKJ3Grns9YhJ9xSelWy-24" style="edgeStyle=orthogonalEdgeStyle;rounded=0;orthogonalLoop=1;jettySize=auto;html=1;entryX=0.5;entryY=1;entryDx=0;entryDy=0;entryPerimeter=0;curved=1;" edge="1" parent="1" source="IqKJ3Grns9YhJ9xSelWy-20" target="IqKJ3Grns9YhJ9xSelWy-12">
          <mxGeometry relative="1" as="geometry" />
        </mxCell>
        <mxCell id="IqKJ3Grns9YhJ9xSelWy-25" style="edgeStyle=orthogonalEdgeStyle;rounded=0;orthogonalLoop=1;jettySize=auto;html=1;entryX=0.5;entryY=1;entryDx=0;entryDy=0;entryPerimeter=0;curved=1;" edge="1" parent="1" source="IqKJ3Grns9YhJ9xSelWy-22" target="IqKJ3Grns9YhJ9xSelWy-13">
          <mxGeometry relative="1" as="geometry" />
        </mxCell>
        <mxCell id="IqKJ3Grns9YhJ9xSelWy-26" style="edgeStyle=orthogonalEdgeStyle;rounded=0;orthogonalLoop=1;jettySize=auto;html=1;entryX=0.5;entryY=0;entryDx=0;entryDy=0;entryPerimeter=0;curved=1;" edge="1" parent="1" source="IqKJ3Grns9YhJ9xSelWy-10" target="IqKJ3Grns9YhJ9xSelWy-11">
          <mxGeometry relative="1" as="geometry" />
        </mxCell>
        <mxCell id="IqKJ3Grns9YhJ9xSelWy-27" style="edgeStyle=orthogonalEdgeStyle;rounded=0;orthogonalLoop=1;jettySize=auto;html=1;entryX=0.5;entryY=0;entryDx=0;entryDy=0;entryPerimeter=0;curved=1;" edge="1" parent="1" source="IqKJ3Grns9YhJ9xSelWy-10" target="IqKJ3Grns9YhJ9xSelWy-12">
          <mxGeometry relative="1" as="geometry" />
        </mxCell>
        <mxCell id="IqKJ3Grns9YhJ9xSelWy-28" style="edgeStyle=orthogonalEdgeStyle;rounded=0;orthogonalLoop=1;jettySize=auto;html=1;entryX=0.5;entryY=0;entryDx=0;entryDy=0;entryPerimeter=0;curved=1;" edge="1" parent="1" source="IqKJ3Grns9YhJ9xSelWy-10" target="IqKJ3Grns9YhJ9xSelWy-13">
          <mxGeometry relative="1" as="geometry" />
        </mxCell>
        <mxCell id="IqKJ3Grns9YhJ9xSelWy-34" style="edgeStyle=orthogonalEdgeStyle;rounded=0;orthogonalLoop=1;jettySize=auto;html=1;entryX=0;entryY=0.5;entryDx=0;entryDy=0;" edge="1" parent="1" source="IqKJ3Grns9YhJ9xSelWy-31" target="IqKJ3Grns9YhJ9xSelWy-32">
          <mxGeometry relative="1" as="geometry" />
        </mxCell>
        <mxCell id="IqKJ3Grns9YhJ9xSelWy-31" value="API&lt;br&gt;(HTTP/REST)" style="rounded=1;whiteSpace=wrap;html=1;" vertex="1" parent="1">
          <mxGeometry x="430" y="160" width="80" height="420" as="geometry" />
        </mxCell>
        <mxCell id="IqKJ3Grns9YhJ9xSelWy-32" value="" style="rounded=1;whiteSpace=wrap;html=1;" vertex="1" parent="1">
          <mxGeometry x="570" y="160" width="110" height="420" as="geometry" />
        </mxCell>
        <mxCell id="IqKJ3Grns9YhJ9xSelWy-33" style="edgeStyle=orthogonalEdgeStyle;rounded=0;orthogonalLoop=1;jettySize=auto;html=1;entryX=-0.05;entryY=0.429;entryDx=0;entryDy=0;entryPerimeter=0;curved=1;" edge="1" parent="1" source="IqKJ3Grns9YhJ9xSelWy-29" target="IqKJ3Grns9YhJ9xSelWy-31">
          <mxGeometry relative="1" as="geometry" />
        </mxCell>
        <mxCell id="IqKJ3Grns9YhJ9xSelWy-35" value="Admin UI" style="rounded=0;whiteSpace=wrap;html=1;" vertex="1" parent="1">
          <mxGeometry x="580" y="240" width="90" height="50" as="geometry" />
        </mxCell>
        <mxCell id="IqKJ3Grns9YhJ9xSelWy-36" value="APPS" style="text;html=1;strokeColor=none;fillColor=none;align=center;verticalAlign=middle;whiteSpace=wrap;rounded=0;" vertex="1" parent="1">
          <mxGeometry x="595" y="180" width="60" height="30" as="geometry" />
        </mxCell>
        <mxCell id="IqKJ3Grns9YhJ9xSelWy-37" value="Dashborad System" style="rounded=0;whiteSpace=wrap;html=1;" vertex="1" parent="1">
          <mxGeometry x="580" y="320" width="90" height="50" as="geometry" />
        </mxCell>
        <mxCell id="IqKJ3Grns9YhJ9xSelWy-38" value="Data&amp;nbsp;Service" style="rounded=0;whiteSpace=wrap;html=1;" vertex="1" parent="1">
          <mxGeometry x="580" y="404.5" width="90" height="50" as="geometry" />
        </mxCell>
        <mxCell id="IqKJ3Grns9YhJ9xSelWy-39" value="......" style="text;html=1;strokeColor=none;fillColor=none;align=center;verticalAlign=middle;whiteSpace=wrap;rounded=0;" vertex="1" parent="1">
          <mxGeometry x="595" y="490" width="60" height="30" as="geometry" />
        </mxCell>
      </root>
    </mxGraphModel>
  </diagram>
</mxfile>
